<mxfile host="" modified="2021-02-22T01:31:30.706Z" agent="5.0 (Macintosh; Intel Mac OS X 10_15_7) AppleWebKit/537.36 (KHTML, like Gecko) Chrome/84.0.4147.105 Safari/537.36" version="13.7.9" etag="BICycpqSTugZUGHFyrsB" type="embed"><diagram id="wu_uEJe5cRVJ5iS6vXIR" name="Page-1"><mxGraphModel dx="678" dy="537" grid="1" gridSize="10" guides="1" tooltips="1" connect="1" arrows="1" fold="1" page="1" pageScale="1" pageWidth="850" pageHeight="1100" math="0" shadow="0"><root><mxCell id="0"/><mxCell id="1" parent="0"/><mxCell id="2" value="Client" style="html=1;" vertex="1" parent="1"><mxGeometry x="120" y="160" width="120" height="50" as="geometry"/></mxCell><mxCell id="3" value="Handler" style="swimlane;fontStyle=0;childLayout=stackLayout;horizontal=1;startSize=26;fillColor=none;horizontalStack=0;resizeParent=1;resizeParentMax=0;resizeLast=0;collapsible=1;marginBottom=0;" vertex="1" parent="1"><mxGeometry x="400" y="160" width="160" height="52" as="geometry"/></mxCell><mxCell id="4" value="HandleRequest()" style="text;strokeColor=none;fillColor=none;align=left;verticalAlign=top;spacingLeft=4;spacingRight=4;overflow=hidden;rotatable=0;points=[[0,0.5],[1,0.5]];portConstraint=eastwest;" vertex="1" parent="3"><mxGeometry y="26" width="160" height="26" as="geometry"/></mxCell><mxCell id="13" value="" style="group" vertex="1" connectable="0" parent="1"><mxGeometry x="530" y="80" width="190" height="106" as="geometry"/></mxCell><mxCell id="10" value="" style="endArrow=classic;html=1;" edge="1" parent="13"><mxGeometry width="50" height="50" relative="1" as="geometry"><mxPoint x="30" y="105.5" as="sourcePoint"/><mxPoint y="80" as="targetPoint"/><Array as="points"><mxPoint x="190" y="106"/><mxPoint x="190"/><mxPoint/></Array></mxGeometry></mxCell><mxCell id="11" value="successor" style="text;html=1;align=center;verticalAlign=middle;resizable=0;points=[];autosize=1;" vertex="1" parent="13"><mxGeometry x="70" y="70" width="70" height="20" as="geometry"/></mxCell><mxCell id="14" value="" style="endArrow=classic;html=1;exitX=1;exitY=0.5;exitDx=0;exitDy=0;entryX=0.013;entryY=-0.038;entryDx=0;entryDy=0;entryPerimeter=0;" edge="1" parent="1" source="2" target="4"><mxGeometry width="50" height="50" relative="1" as="geometry"><mxPoint x="400" y="600" as="sourcePoint"/><mxPoint x="450" y="550" as="targetPoint"/></mxGeometry></mxCell><mxCell id="21" value="" style="endArrow=diamondThin;endFill=0;endSize=24;html=1;" edge="1" parent="1"><mxGeometry width="160" relative="1" as="geometry"><mxPoint x="479.76" y="212" as="sourcePoint"/><mxPoint x="480" y="280" as="targetPoint"/></mxGeometry></mxCell><mxCell id="15" value="ConcreteHandler1" style="swimlane;fontStyle=0;childLayout=stackLayout;horizontal=1;startSize=26;fillColor=none;horizontalStack=0;resizeParent=1;resizeParentMax=0;resizeLast=0;collapsible=1;marginBottom=0;" vertex="1" parent="1"><mxGeometry x="280" y="320" width="170" height="52" as="geometry"/></mxCell><mxCell id="16" value="HandleRequest()" style="text;strokeColor=none;fillColor=none;align=left;verticalAlign=top;spacingLeft=4;spacingRight=4;overflow=hidden;rotatable=0;points=[[0,0.5],[1,0.5]];portConstraint=eastwest;" vertex="1" parent="15"><mxGeometry y="26" width="170" height="26" as="geometry"/></mxCell><mxCell id="19" value="ConcreteHandler2" style="swimlane;fontStyle=0;childLayout=stackLayout;horizontal=1;startSize=26;fillColor=none;horizontalStack=0;resizeParent=1;resizeParentMax=0;resizeLast=0;collapsible=1;marginBottom=0;" vertex="1" parent="1"><mxGeometry x="520" y="320" width="170" height="52" as="geometry"/></mxCell><mxCell id="20" value="HandleRequest()" style="text;strokeColor=none;fillColor=none;align=left;verticalAlign=top;spacingLeft=4;spacingRight=4;overflow=hidden;rotatable=0;points=[[0,0.5],[1,0.5]];portConstraint=eastwest;" vertex="1" parent="19"><mxGeometry y="26" width="170" height="26" as="geometry"/></mxCell><mxCell id="22" value="" style="endArrow=none;html=1;" edge="1" parent="1"><mxGeometry width="50" height="50" relative="1" as="geometry"><mxPoint x="600" y="280" as="sourcePoint"/><mxPoint x="360" y="280" as="targetPoint"/></mxGeometry></mxCell><mxCell id="23" value="" style="endArrow=none;html=1;" edge="1" parent="1"><mxGeometry width="50" height="50" relative="1" as="geometry"><mxPoint x="600" y="320" as="sourcePoint"/><mxPoint x="600" y="280" as="targetPoint"/></mxGeometry></mxCell><mxCell id="24" value="" style="endArrow=none;html=1;" edge="1" parent="1"><mxGeometry width="50" height="50" relative="1" as="geometry"><mxPoint x="360" y="320" as="sourcePoint"/><mxPoint x="360" y="280" as="targetPoint"/></mxGeometry></mxCell></root></mxGraphModel></diagram></mxfile>